<svg width="23" height="23" viewBox="0 0 23 23" fill="none" xmlns="http://www.w3.org/2000/svg">
<g opacity="0.8">
<mask id="mask0_227_2076" style="mask-type:luminance" maskUnits="userSpaceOnUse" x="0" y="0" width="23" height="23">
<path d="M0.816406 0.742188H22.4164V22.3422H0.816406V0.742188Z" fill="white"/>
</mask>
<g mask="url(#mask0_227_2076)">
<path d="M11.6137 0.994142C9.04223 0.992939 6.55473 1.90928 4.59857 3.57835C2.64242 5.24742 1.34598 7.55968 0.942438 10.0993C0.538893 12.6388 1.05472 15.2391 2.39715 17.4323C3.73958 19.6255 5.82051 21.2678 8.26567 22.0637H8.52607C8.65352 22.0717 8.78118 22.0524 8.9006 22.0071C9.02001 21.9619 9.12844 21.8918 9.21867 21.8015C9.3089 21.7111 9.37888 21.6026 9.42395 21.4831C9.46902 21.3637 9.48815 21.236 9.48007 21.1085V19.9385C9.46145 19.8199 9.39676 19.7134 9.30007 19.6421C9.24758 19.6002 9.18648 19.5704 9.12114 19.5549C9.05579 19.5393 8.98782 19.5384 8.92207 19.5521C6.51007 20.0741 5.99767 18.5621 5.96167 18.4637C5.65839 17.6643 5.11833 16.9764 4.41367 16.4921C4.37086 16.4558 4.32555 16.4225 4.27807 16.3925C4.38266 16.3363 4.50235 16.3144 4.62007 16.3301C4.84648 16.3612 5.06094 16.4505 5.24247 16.5894C5.424 16.7282 5.56638 16.9118 5.65567 17.1221C6.00384 17.7284 6.57357 18.1759 7.24499 18.3706C7.91642 18.5653 8.63719 18.492 9.25567 18.1661C9.32165 18.1366 9.37966 18.0919 9.42494 18.0355C9.47021 17.9792 9.50145 17.9129 9.51607 17.8421C9.5504 17.4256 9.72858 17.034 10.0201 16.7345C10.0846 16.6771 10.1311 16.6023 10.1543 16.5191C10.1774 16.4359 10.1761 16.3478 10.1506 16.2654C10.125 16.1829 10.0763 16.1095 10.0102 16.0539C9.94404 15.9984 9.86333 15.9631 9.77767 15.9521C7.64407 15.7097 5.46607 14.9621 5.46607 11.2805C5.44826 10.3561 5.78685 9.46015 6.41167 8.77854C6.46835 8.71463 6.50593 8.63609 6.52015 8.55187C6.53436 8.46764 6.52464 8.38111 6.49207 8.30214C6.24214 7.60325 6.24553 6.83879 6.50167 6.14214C7.33327 6.28974 8.11327 6.64614 8.76967 7.17654C8.82393 7.21471 8.88604 7.24023 8.95146 7.25123C9.01687 7.26224 9.08392 7.25845 9.14767 7.24014C9.95172 7.02242 10.7807 6.91028 11.6137 6.90654C12.4501 6.90774 13.2817 7.01934 14.0881 7.24014C14.1506 7.25715 14.2161 7.26027 14.2799 7.24928C14.3438 7.23829 14.4044 7.21347 14.4577 7.17654C15.1151 6.64728 15.895 6.2916 16.7257 6.14214C16.9704 6.83517 16.9704 7.59112 16.7257 8.28414C16.6916 8.36284 16.6811 8.4497 16.6954 8.53423C16.7097 8.61877 16.7481 8.69737 16.8061 8.76054C17.4246 9.43549 17.7627 10.3207 17.7517 11.2361C17.7517 14.9177 15.5641 15.6557 13.4221 15.8981C13.334 15.9069 13.2504 15.9414 13.1819 15.9975C13.1134 16.0536 13.063 16.1288 13.0371 16.2134C13.0112 16.2981 13.0109 16.3885 13.0363 16.4733C13.0616 16.5582 13.1115 16.6336 13.1797 16.6901C13.3789 16.896 13.5311 17.1426 13.6258 17.4129C13.7205 17.6833 13.7554 17.971 13.7281 18.2561V21.1181C13.7239 21.2589 13.7508 21.3988 13.8068 21.528C13.8628 21.6572 13.9465 21.7725 14.0521 21.8657C14.1868 21.9665 14.3433 22.0344 14.5089 22.064C14.6745 22.0935 14.8448 22.084 15.0061 22.0361C17.4342 21.2238 19.4948 19.5752 20.8202 17.3845C22.1455 15.1938 22.6495 12.6035 22.2421 10.0757C21.8347 7.54788 20.5425 5.24703 18.596 3.58363C16.6495 1.92023 14.1753 1.00249 11.6149 0.994142" fill="url(#paint0_linear_227_2076)"/>
</g>
</g>
<defs>
<linearGradient id="paint0_linear_227_2076" x1="11.5957" y1="0.994142" x2="11.5957" y2="22.0805" gradientUnits="userSpaceOnUse">
<stop stop-color="#C9CBCF"/>
<stop offset="1" stop-color="#C9CBCF" stop-opacity="0.8"/>
</linearGradient>
</defs>
</svg>
