<svg width="34" height="34" viewBox="0 0 34 34" fill="none" xmlns="http://www.w3.org/2000/svg">
<g clip-path="url(#clip0_227_2630)">
<path fill-rule="evenodd" clip-rule="evenodd" d="M13.5386 27.6622C13.3062 27.6622 13.1126 27.4686 13.0933 27.2362C12.706 22.8023 11.2732 20.7306 10.0147 18.8718C8.98848 17.4003 8.11719 16.103 8.11719 14.0119C8.11719 9.11328 12.1058 5.14404 16.985 5.14404C21.8837 5.14404 25.8723 9.11328 25.8723 14.0119C25.8723 16.103 24.9816 17.3809 23.9748 18.8524C22.6969 20.6725 21.2641 22.7636 20.8768 27.2362C20.8575 27.4879 20.6445 27.6816 20.3928 27.6622C20.1411 27.6235 19.9668 27.4105 19.9862 27.1781H13.9839C14.0033 27.4105 13.829 27.6235 13.5773 27.6622C13.5579 27.6622 13.5579 27.6622 13.5386 27.6622Z" fill="url(#paint0_linear_227_2630)"/>
<path fill-rule="evenodd" clip-rule="evenodd" d="M17.7019 33.1221H16.2691C14.5265 33.1221 13.0938 31.6893 13.0938 29.9273V27.1973C13.0938 26.9456 13.2874 26.752 13.5391 26.752C13.7133 26.752 13.8682 26.8488 13.9457 27.0037H20.0254C20.1028 26.8488 20.2577 26.752 20.432 26.752C20.6837 26.752 20.8773 26.9456 20.8773 27.1973V29.9273C20.8773 31.6893 19.4639 33.1221 17.7019 33.1221Z" fill="url(#paint1_linear_227_2630)"/>
<path fill-rule="evenodd" clip-rule="evenodd" d="M21.2843 27.4491H12.7069C12.4552 27.4491 12.2422 27.2555 12.2422 27.0038C12.2422 26.752 12.4552 26.5391 12.7069 26.5391H21.2843C21.536 26.5391 21.7296 26.752 21.7296 27.0038C21.7296 27.2555 21.536 27.4491 21.2843 27.4491Z" fill="#FF580A"/>
<path fill-rule="evenodd" clip-rule="evenodd" d="M21.2843 29.1141H12.7069C12.4552 29.1141 12.2422 28.9011 12.2422 28.6494C12.2422 28.4171 12.4552 28.2041 12.7069 28.2041H21.2843C21.536 28.2041 21.7296 28.4171 21.7296 28.6494C21.7296 28.9011 21.536 29.1141 21.2843 29.1141Z" fill="#FF580A"/>
<path fill-rule="evenodd" clip-rule="evenodd" d="M21.2843 30.7603H12.7069C12.4552 30.7603 12.2422 30.5667 12.2422 30.315C12.2422 30.0633 12.4552 29.8696 12.7069 29.8696H21.2843C21.536 29.8696 21.7296 30.0633 21.7296 30.315C21.7296 30.5667 21.536 30.7603 21.2843 30.7603Z" fill="#FF580A"/>
<path fill-rule="evenodd" clip-rule="evenodd" d="M10.4414 14.1475C10.1897 14.1475 9.99609 13.9538 9.99609 13.7021C9.99609 9.84907 13.1328 6.7124 16.9858 6.7124C17.2375 6.7124 17.4505 6.90602 17.4505 7.15773C17.4505 7.40944 17.2375 7.60306 16.9858 7.60306C13.6362 7.60306 10.9061 10.3525 10.9061 13.7021C10.9061 13.9538 10.6931 14.1475 10.4414 14.1475Z" fill="#FEFEFE"/>
<path fill-rule="evenodd" clip-rule="evenodd" d="M16.9883 3.96293C16.7366 3.96293 16.543 3.7693 16.543 3.5176V0.555192C16.543 0.303485 16.7366 0.109863 16.9883 0.109863C17.24 0.109863 17.453 0.303485 17.453 0.555192V3.5176C17.453 3.7693 17.24 3.96293 16.9883 3.96293Z" fill="#FF580A"/>
<path fill-rule="evenodd" clip-rule="evenodd" d="M23.4351 5.70567C23.3577 5.70567 23.2802 5.68631 23.2028 5.62822C22.9898 5.51205 22.9124 5.24098 23.0479 5.02799L24.5194 2.45283C24.655 2.23985 24.926 2.1624 25.139 2.27857C25.352 2.41411 25.4294 2.68518 25.3133 2.89816L23.8224 5.47332C23.7449 5.60886 23.59 5.70567 23.4351 5.70567Z" fill="#FF580A"/>
<path fill-rule="evenodd" clip-rule="evenodd" d="M28.1406 10.4104C27.9857 10.4104 27.8308 10.333 27.7534 10.1781C27.6372 9.96508 27.6953 9.69402 27.9277 9.55848L30.4835 8.08696C30.6964 7.95142 30.9675 8.02887 31.103 8.24186C31.2192 8.4742 31.1611 8.74527 30.9288 8.86144L28.373 10.3523C28.2955 10.3911 28.2181 10.4104 28.1406 10.4104Z" fill="#FF580A"/>
<path fill-rule="evenodd" clip-rule="evenodd" d="M32.8257 16.8389H29.8633C29.6116 16.8389 29.418 16.6453 29.418 16.3936C29.418 16.1419 29.6116 15.9482 29.8633 15.9482H32.8257C33.0774 15.9482 33.2904 16.1419 33.2904 16.3936C33.2904 16.6453 33.0774 16.8389 32.8257 16.8389Z" fill="#FF580A"/>
<path fill-rule="evenodd" clip-rule="evenodd" d="M10.5571 5.70567C10.4022 5.70567 10.2473 5.60886 10.1698 5.47332L8.67896 2.89816C8.56279 2.68518 8.64024 2.41411 8.85322 2.27857C9.06621 2.1624 9.33727 2.23985 9.47281 2.45283L10.9443 5.02799C11.0799 5.24098 11.0024 5.51205 10.7894 5.62822C10.712 5.68631 10.6345 5.70567 10.5571 5.70567Z" fill="#FF580A"/>
<path fill-rule="evenodd" clip-rule="evenodd" d="M5.83469 10.4104C5.7766 10.4104 5.69915 10.3911 5.62171 10.3523L3.04654 8.86144C2.83356 8.74527 2.75611 8.4742 2.89165 8.24186C3.00782 8.02887 3.27889 7.95142 3.51123 8.08696L6.06703 9.55848C6.28002 9.69402 6.35747 9.96508 6.24129 10.1781C6.14448 10.333 6.00895 10.4104 5.83469 10.4104Z" fill="#FF580A"/>
<path fill-rule="evenodd" clip-rule="evenodd" d="M4.11086 16.8389H1.14845C0.896746 16.8389 0.703125 16.6453 0.703125 16.3936C0.703125 16.1419 0.896746 15.9482 1.14845 15.9482H4.11086C4.36257 15.9482 4.57555 16.1419 4.57555 16.3936C4.57555 16.6453 4.36257 16.8389 4.11086 16.8389Z" fill="#FF580A"/>
</g>
<defs>
<linearGradient id="paint0_linear_227_2630" x1="25.8723" y1="15.1692" x2="14.6904" y2="30.1563" gradientUnits="userSpaceOnUse">
<stop stop-color="#FF5C10"/>
<stop offset="1" stop-color="#FFA77E"/>
</linearGradient>
<linearGradient id="paint1_linear_227_2630" x1="18.4591" y1="27.6052" x2="18.8305" y2="34.681" gradientUnits="userSpaceOnUse">
<stop stop-color="#FF5C10"/>
<stop offset="1" stop-color="#FFA77E"/>
</linearGradient>
<clipPath id="clip0_227_2630">
<rect width="33.0511" height="33.0511" fill="white" transform="translate(0.472656 0.090332)"/>
</clipPath>
</defs>
</svg>
