<svg width="23" height="23" viewBox="0 0 23 23" fill="none" xmlns="http://www.w3.org/2000/svg">
<g opacity="0.8">
<mask id="mask0_227_2068" style="mask-type:luminance" maskUnits="userSpaceOnUse" x="0" y="0" width="23" height="23">
<path d="M0.617188 0.742188H22.2172V22.3422H0.617188V0.742188Z" fill="white"/>
</mask>
<g mask="url(#mask0_227_2068)">
<path d="M20.3253 1.82324H2.50531C2.01931 1.82324 1.69531 2.14724 1.69531 2.63324V20.4532C1.69531 20.9392 2.01931 21.2632 2.50531 21.2632H20.3253C20.8113 21.2632 21.1353 20.9392 21.1353 20.4532V2.63324C21.1353 2.14724 20.8113 1.82324 20.3253 1.82324ZM7.44691 18.4276H4.61131V9.11324H7.52731V18.4276H7.44691ZM5.98891 7.81724C5.5384 7.81472 5.10705 7.63464 4.78848 7.31607C4.46992 6.9975 4.28983 6.56616 4.28731 6.11564C4.28731 5.22524 5.01691 4.41524 5.98891 4.41524C6.87931 4.41524 7.68931 5.14364 7.68931 6.11564C7.68931 7.08764 6.96091 7.81724 5.98891 7.81724ZM18.3009 18.4276H15.3849V13.8916C15.3849 12.8392 15.3849 11.4616 13.9269 11.4616C12.3873 11.4616 12.2253 12.5956 12.2253 13.8112V18.4276H9.30931V9.11324H12.0633V10.4092C12.4689 9.67964 13.3593 8.95124 14.8173 8.95124C17.7333 8.95124 18.3009 10.8952 18.3009 13.4056V18.4276Z" fill="url(#paint0_linear_227_2068)"/>
</g>
</g>
<defs>
<linearGradient id="paint0_linear_227_2068" x1="11.4153" y1="1.82324" x2="11.4153" y2="21.2632" gradientUnits="userSpaceOnUse">
<stop stop-color="#C9CBCF"/>
<stop offset="1" stop-color="#C9CBCF" stop-opacity="0.8"/>
</linearGradient>
</defs>
</svg>
