<svg width="31" height="31" viewBox="0 0 31 31" fill="none" xmlns="http://www.w3.org/2000/svg">
<g clip-path="url(#clip0_227_2134)">
<g clip-path="url(#clip1_227_2134)">
<path opacity="0.6" d="M15.2093 8.64805C17.2769 8.64805 18.9576 6.96654 18.9576 4.89971C18.9576 2.83287 17.2769 1.15137 15.2093 1.15137C13.1417 1.15137 11.4609 2.83287 11.4609 4.89971C11.4609 6.96654 13.1417 8.64805 15.2093 8.64805Z" fill="#EB7B47"/>
<path opacity="0.2" d="M25.5179 8.64805C27.5855 8.64805 29.2662 6.96654 29.2662 4.89971C29.2662 2.83287 27.5855 1.15137 25.5179 1.15137C23.4503 1.15137 21.7695 2.83287 21.7695 4.89971C21.7695 6.96654 23.4503 8.64805 25.5179 8.64805Z" fill="#EB7B47"/>
<path opacity="0.6" d="M25.5166 11.4595C23.449 11.4595 21.7682 13.141 21.7682 15.2078C21.7682 17.2746 23.449 18.9562 25.5166 18.9562C27.5841 18.9562 29.2649 17.2746 29.2649 15.2078C29.2649 13.141 27.5841 11.4595 25.5166 11.4595ZM4.90068 21.7674C2.8331 21.7674 1.15234 23.4489 1.15234 25.5158C1.15234 27.5826 2.8331 29.2641 4.90068 29.2641C6.96827 29.2641 8.64903 27.5826 8.64903 25.5158C8.64903 23.4489 6.96827 21.7674 4.90068 21.7674Z" fill="#EB7B47"/>
<path d="M25.5166 21.7672C23.7751 21.7672 22.32 22.9667 21.9009 24.5785H18.8243C18.6566 23.934 18.32 23.346 17.8491 22.8751C17.3782 22.4042 16.7902 22.0676 16.1457 21.8999V18.8233C17.7575 18.4035 18.957 16.9491 18.957 15.2076C18.957 13.1408 17.2762 11.4593 15.2086 11.4593C13.4671 11.4593 12.012 12.6588 11.5937 14.2706H8.51558C8.34788 13.6263 8.01129 13.0385 7.54056 12.5678C7.06983 12.097 6.48201 11.7605 5.83777 11.5927V8.51461C7.44956 8.09629 8.64903 6.64044 8.64903 4.89971C8.64903 2.83287 6.96827 1.15137 4.90068 1.15137C2.8331 1.15137 1.15234 2.83287 1.15234 4.89971C1.15234 6.64119 2.35181 8.09629 3.9636 8.51536V11.5927C2.35181 12.0111 1.15234 13.4669 1.15234 15.2076C1.15234 17.2745 2.8331 18.956 4.90068 18.956C6.64216 18.956 8.09727 17.7565 8.51634 16.1447H11.5937C11.7613 16.7891 12.0978 17.3771 12.5686 17.848C13.0393 18.3188 13.6272 18.6555 14.2715 18.8233V21.8999C12.6598 22.3197 11.4603 23.7741 11.4603 25.5156C11.4603 27.5824 13.141 29.2639 15.2086 29.2639C16.9501 29.2639 18.4052 28.0645 18.8243 26.4527H21.9009C22.3207 28.0645 23.7751 29.2639 25.5166 29.2639C27.5841 29.2639 29.2649 27.5824 29.2649 25.5156C29.2649 23.4487 27.5841 21.7672 25.5166 21.7672Z" fill="#EB7B47"/>
<mask id="mask0_227_2134" style="mask-type:alpha" maskUnits="userSpaceOnUse" x="1" y="1" width="29" height="29">
<path d="M21.9018 24.9518H22.1912L22.2647 24.6714C22.6425 23.2171 23.9529 22.1405 25.5167 22.1405C27.3767 22.1405 28.8902 23.6549 28.8902 25.514C28.8902 27.3732 27.3767 28.8875 25.5167 28.8875C23.9522 28.8875 22.6425 27.8103 22.2647 26.3567L22.1912 26.0763H18.5343L18.4608 26.3567C18.083 27.811 16.7733 28.8875 15.2088 28.8875C13.3489 28.8875 11.8353 27.3732 11.8353 25.514C11.8353 23.9502 12.9118 22.6391 14.3662 22.2612L14.6465 22.1885V18.5316L14.3662 18.4589C13.7863 18.3081 13.2571 18.0051 12.8334 17.5814C12.4097 17.1577 12.1068 16.6286 11.956 16.0487L11.8833 15.7684H8.22638L8.15291 16.0487C7.77583 17.5031 6.46466 18.5796 4.90085 18.5796C3.04092 18.5796 1.52734 17.0653 1.52734 15.2061C1.52734 13.6423 2.60462 12.3311 4.05822 11.9533L4.3386 11.8806V8.22369L4.05822 8.15098C2.60387 7.77314 1.52734 6.46197 1.52734 4.89817C1.52734 3.03899 3.04092 1.52466 4.90085 1.52466C6.76078 1.52466 8.27436 3.03899 8.27436 4.89817C8.27436 5.38995 8.38831 5.85024 8.5195 6.25506C8.58547 6.45748 8.65744 6.65089 8.72266 6.82781L8.72416 6.83156C8.79088 7.00998 8.8501 7.16891 8.89658 7.3151C8.99704 7.62996 9.00753 7.79938 8.97455 7.89609C8.95656 7.95006 8.89733 8.06176 8.55473 8.15098L8.27436 8.22369V11.8806L8.55473 11.9533C8.62788 11.9672 8.6978 11.9947 8.76089 12.0343C8.75646 12.0634 8.74918 12.092 8.73915 12.1197C8.70361 12.2139 8.66178 12.3055 8.61396 12.3941L8.55173 12.5118C8.42471 12.7404 8.31495 12.9782 8.22338 13.2232C8.10943 13.5531 8.04346 13.9414 8.15291 14.3627L8.22638 14.6439H11.8833L11.9567 14.3635C12.3346 12.9091 13.6442 11.8326 15.2088 11.8326C17.0687 11.8326 18.5823 13.3469 18.5823 15.2061C18.5823 16.7699 17.5058 18.0811 16.0514 18.4589L15.771 18.5316V22.1885L16.0514 22.2612C16.6313 22.4121 17.1604 22.715 17.5841 23.1387C18.0078 23.5624 18.3107 24.0915 18.4616 24.6714L18.5343 24.9518H21.9018ZM8.77514 12.05C8.77414 12.05 8.77164 12.0465 8.76764 12.0395C8.77464 12.0455 8.77714 12.0487 8.77514 12.0492V12.05Z" stroke="black" stroke-width="0.749668"/>
</mask>
<g mask="url(#mask0_227_2134)">
<g style="mix-blend-mode:overlay" filter="url(#filter0_f_227_2134)">
<path d="M1.02424 -5.78418L7.54035 -4.03445L0.734116 21.3066L-5.78125 19.5561L1.02424 -5.78418Z" fill="#B3B3B3"/>
</g>
</g>
<mask id="mask1_227_2134" style="mask-type:alpha" maskUnits="userSpaceOnUse" x="1" y="1" width="29" height="29">
<path fill-rule="evenodd" clip-rule="evenodd" d="M15.2086 8.6461C17.2762 8.6461 18.957 6.96459 18.957 4.89776C18.957 2.83092 17.2762 1.14941 15.2086 1.14941C13.141 1.14941 11.4603 2.83092 11.4603 4.89776C11.4603 6.96459 13.141 8.6461 15.2086 8.6461ZM25.5166 8.6461C27.5841 8.6461 29.2649 6.96459 29.2649 4.89776C29.2649 2.83092 27.5841 1.14941 25.5166 1.14941C23.449 1.14941 21.7682 2.83092 21.7682 4.89776C21.7682 6.96459 23.449 8.6461 25.5166 8.6461ZM21.7682 15.2057C21.7682 13.1389 23.449 11.4574 25.5166 11.4574C27.5841 11.4574 29.2649 13.1389 29.2649 15.2057C29.2649 17.2725 27.5841 18.954 25.5166 18.954C23.449 18.954 21.7682 17.2725 21.7682 15.2057ZM4.90068 21.7653C2.8331 21.7653 1.15234 23.4468 1.15234 25.5136C1.15234 27.5805 2.8331 29.262 4.90068 29.262C6.96827 29.262 8.64903 27.5805 8.64903 25.5136C8.64903 23.4468 6.96827 21.7653 4.90068 21.7653ZM21.9017 24.5765C22.32 22.9648 23.7751 21.7653 25.5166 21.7653C27.5841 21.7653 29.2649 23.4468 29.2649 25.5136C29.2649 27.5805 27.5841 29.262 25.5166 29.262C23.7751 29.262 22.32 28.0625 21.9009 26.4507H18.8243C18.4045 28.0625 16.9501 29.262 15.2086 29.262C13.141 29.262 11.4603 27.5805 11.4603 25.5136C11.4603 23.7722 12.6598 22.317 14.2715 21.898V18.8213C13.6272 18.6536 13.0393 18.3169 12.5686 17.846C12.0978 17.3751 11.7613 16.7872 11.5937 16.1428H8.51558C8.09802 17.7546 6.64291 18.954 4.90068 18.954C2.8331 18.954 1.15234 17.2725 1.15234 15.2057C1.15234 13.4642 2.35181 12.0091 3.9636 11.5908V8.51266C2.35181 8.09434 1.15234 6.63848 1.15234 4.89776C1.15234 2.83092 2.8331 1.14941 4.90068 1.14941C6.96827 1.14941 8.64903 2.83092 8.64903 4.89776C8.64903 6.63923 7.44956 8.09434 5.83777 8.51341V11.5908C6.48215 11.7584 7.07013 12.0949 7.541 12.5657C8.01187 13.0364 8.34857 13.6243 8.51634 14.2686H11.5937C12.012 12.6568 13.4671 11.4574 15.2086 11.4574C17.2762 11.4574 18.957 13.1389 18.957 15.2057C18.957 16.9472 17.7575 18.4023 16.1457 18.8213V21.898C16.7902 22.0656 17.3782 22.4023 17.8491 22.8732C18.32 23.344 18.6566 23.9321 18.8243 24.5765H21.9017Z" fill="#0B0D10"/>
</mask>
<g mask="url(#mask1_227_2134)">
<g opacity="0.6" filter="url(#filter1_f_227_2134)">
<path d="M-10.6569 12.9577C-0.0991287 12.9577 8.45964 4.39892 8.45964 -6.15885C8.45964 -16.7166 -0.0991287 -25.2754 -10.6569 -25.2754C-21.2147 -25.2754 -29.7734 -16.7166 -29.7734 -6.15885C-29.7734 4.39892 -21.2147 12.9577 -10.6569 12.9577Z" fill="#B74814"/>
</g>
</g>
</g>
</g>
<defs>
<filter id="filter0_f_227_2134" x="-8.77992" y="-8.78285" width="19.3177" height="33.0882" filterUnits="userSpaceOnUse" color-interpolation-filters="sRGB">
<feFlood flood-opacity="0" result="BackgroundImageFix"/>
<feBlend mode="normal" in="SourceGraphic" in2="BackgroundImageFix" result="shape"/>
<feGaussianBlur stdDeviation="1.49934" result="effect1_foregroundBlur_227_2134"/>
</filter>
<filter id="filter1_f_227_2134" x="-40.2688" y="-35.7707" width="59.2251" height="59.2239" filterUnits="userSpaceOnUse" color-interpolation-filters="sRGB">
<feFlood flood-opacity="0" result="BackgroundImageFix"/>
<feBlend mode="normal" in="SourceGraphic" in2="BackgroundImageFix" result="shape"/>
<feGaussianBlur stdDeviation="5.24768" result="effect1_foregroundBlur_227_2134"/>
</filter>
<clipPath id="clip0_227_2134">
<rect width="29.9867" height="29.9867" fill="white" transform="translate(0.214844 0.213867)"/>
</clipPath>
<clipPath id="clip1_227_2134">
<rect width="29.9867" height="29.9867" fill="white" transform="translate(0.214844 0.213867)"/>
</clipPath>
</defs>
</svg>
