<svg width="20" height="20" viewBox="0 0 20 20" fill="none" xmlns="http://www.w3.org/2000/svg">
<path d="M18.4636 3.25731C16.9319 2.70198 15.4559 2.45431 14.1603 2.43231C12.1369 2.46365 10.7369 3.01398 10.0336 3.35631C9.33026 3.01398 7.89693 2.46298 5.92693 2.43165C4.59359 2.42998 3.11359 2.70998 1.60359 3.25731C0.90626 3.50931 0.433594 4.17865 0.433594 4.92165V15.0183C0.433594 15.507 0.66276 15.9536 1.06326 16.245C1.45693 16.5293 1.95126 16.611 2.42093 16.471C6.38426 15.2597 9.39759 17.106 9.56426 17.2107C9.69359 17.285 9.80693 17.365 10.0036 17.365C10.2209 17.365 10.3409 17.2859 10.4726 17.2124C10.8319 16.9894 13.7493 15.2904 17.6159 16.47C18.0863 16.6117 18.5779 16.5284 18.9743 16.243C19.4036 15.9516 19.6336 15.505 19.6336 15.0183V4.92165C19.6336 4.17898 19.1603 3.50998 18.4636 3.25731ZM9.50026 15.9683C8.66859 15.5673 7.13326 14.9893 5.15026 14.9893C4.22259 14.9893 3.20026 15.1164 2.11059 15.4483C1.96373 15.4931 1.81059 15.4681 1.68759 15.3801C1.56759 15.2916 1.50026 15.135 1.50026 15.0183V4.92165C1.50026 4.62635 1.68566 4.36065 1.96226 4.26065C3.35559 3.75498 4.69693 3.49665 5.91693 3.49831C7.64359 3.52531 8.90693 4.00698 9.50026 4.28698V15.9683ZM18.5669 15.0183C18.5669 15.1641 18.4997 15.2928 18.3805 15.3796C18.2549 15.4697 18.1039 15.4937 17.9575 15.4505C14.5703 14.4183 11.8103 15.3783 10.5669 15.975V4.28698C11.1603 4.00698 12.4236 3.52531 14.1469 3.49831C15.3239 3.49621 16.6916 3.74778 18.1069 4.26098C18.3803 4.36098 18.5669 4.62631 18.5669 4.92165V15.0183Z" fill="white"/>
</svg>
